<mxfile host="app.diagrams.net" modified="2023-07-11T06:58:58.562Z" agent="Mozilla/5.0 (Windows NT 10.0; Win64; x64) AppleWebKit/537.36 (KHTML, like Gecko) Chrome/114.0.0.0 Safari/537.36" etag="iSVG-LfiveDbLeNU3FOd" version="21.6.1" type="github">
  <diagram name="Page-1" id="lC6hlHX6qLmo1_hsIQW7">
    <mxGraphModel dx="911" dy="506" grid="1" gridSize="10" guides="1" tooltips="1" connect="1" arrows="1" fold="1" page="1" pageScale="1" pageWidth="850" pageHeight="1100" math="0" shadow="0">
      <root>
        <mxCell id="0" />
        <mxCell id="1" parent="0" />
        <mxCell id="d1sbItyX6c4jpVlyEUfY-4" style="edgeStyle=orthogonalEdgeStyle;rounded=0;orthogonalLoop=1;jettySize=auto;html=1;entryX=0.5;entryY=0;entryDx=0;entryDy=0;" edge="1" parent="1" source="d1sbItyX6c4jpVlyEUfY-1" target="d1sbItyX6c4jpVlyEUfY-2">
          <mxGeometry relative="1" as="geometry" />
        </mxCell>
        <mxCell id="d1sbItyX6c4jpVlyEUfY-1" value="Start" style="ellipse;whiteSpace=wrap;html=1;" vertex="1" parent="1">
          <mxGeometry x="350" y="10" width="120" height="80" as="geometry" />
        </mxCell>
        <mxCell id="d1sbItyX6c4jpVlyEUfY-5" style="edgeStyle=orthogonalEdgeStyle;rounded=0;orthogonalLoop=1;jettySize=auto;html=1;" edge="1" parent="1" source="d1sbItyX6c4jpVlyEUfY-2" target="d1sbItyX6c4jpVlyEUfY-3">
          <mxGeometry relative="1" as="geometry" />
        </mxCell>
        <mxCell id="d1sbItyX6c4jpVlyEUfY-2" value="User sees a dropdown of countries and selects one" style="rounded=0;whiteSpace=wrap;html=1;" vertex="1" parent="1">
          <mxGeometry x="350" y="170" width="120" height="60" as="geometry" />
        </mxCell>
        <mxCell id="d1sbItyX6c4jpVlyEUfY-3" value="Webapp lists top 10 popular songs of that country" style="rounded=0;whiteSpace=wrap;html=1;" vertex="1" parent="1">
          <mxGeometry x="350" y="310" width="120" height="60" as="geometry" />
        </mxCell>
      </root>
    </mxGraphModel>
  </diagram>
</mxfile>
